<?xml version="1.0" encoding="utf-8"?>
<!-- Generator: Adobe Illustrator 23.0.3, SVG Export Plug-In . SVG Version: 6.00 Build 0)  -->
<svg version="1.1" id="Layer_1" xmlns="http://www.w3.org/2000/svg" xmlns:xlink="http://www.w3.org/1999/xlink" x="0px" y="0px"
	 viewBox="0 0 432 432" style="enable-background:new 0 0 432 432;" xml:space="preserve">
<style type="text/css">
	.st0{stroke:#000000;stroke-width:2;stroke-miterlimit:10;}
	.st1{fill:#FFFFFF;stroke:#000000;stroke-miterlimit:10;}
	.st2{fill:url(#outline_black_2_);stroke:#000000;stroke-miterlimit:10;}
	.st3{display:none;fill:url(#SVGID_1_);stroke:#000000;stroke-miterlimit:10;}
	.st4{fill:url(#SVGID_2_);stroke:#000000;stroke-miterlimit:10;}
	.st5{stroke:#000000;stroke-miterlimit:10;}
	.st6{stroke:url(#SVGID_3_);stroke-miterlimit:10;}
	.st7{stroke:url(#SVGID_4_);stroke-miterlimit:10;}
	.st8{fill:url(#SVGID_5_);}
	.st9{fill:#CC3333;stroke:#FFFFFF;stroke-miterlimit:10;}
	.st10{opacity:0.58;}
</style>
<g>
	<g>
		<path d="M91.5-45.2c0-10.5,0-20.7,0-31.2c7.4,0,14.8,0,22.4,0c0,10.3,0,20.7,0,31.2C106.5-45.2,99.2-45.2,91.5-45.2z M106.5-51
			c0-6.7,0-13.1,0-19.5c-2.7,0-5.1,0-7.6,0c0,6.6,0,13,0,19.5C101.5-51,103.9-51,106.5-51z"/>
		<path d="M215.3-76.5c7.5,0,14.8,0,22.3,0c0,10.5,0,20.8,0,31.3c-7.4,0-14.7,0-22.3,0C215.3-55.5,215.3-65.8,215.3-76.5z
			 M230.2-50.9c0-6.8,0-13.2,0-19.6c-2.7,0-5.2,0-7.7,0c0,6.6,0,12.9,0,19.4c0.6,0.1,1.1,0.2,1.5,0.2C226-50.9,228-50.9,230.2-50.9z
			"/>
		<path d="M151.9-76.6c5.9,0,11.8,0,17.9,0c0,10.6,0,21,0,31.7c-2.3,0-4.6,0-7.1,0c0-3.8,0-7.3,0-10.8c-2.9-1-4.6-0.3-5.4,2.6
			c-0.4,1.3-1.1,2.5-1.7,3.7c-2.6,5.5-2.6,5.5-9.2,4.3c1.6-3.5,3.1-6.8,4.9-10.6c-1.4-0.2-2.6-0.4-3.7-0.6
			C145.9-63.7,148.7-70.2,151.9-76.6z M162.6-70.5c-6.6-1.7-8.1,1.7-7.7,8.4c2.5,0,5,0,7.7,0C162.6-65,162.6-67.6,162.6-70.5z"/>
		<path d="M257.7-55.7c-3.2-1-4.7,0.1-5.6,2.8c-0.4,1.2-1,2.2-1.5,3.3c-2.5,5.4-2.5,5.4-9.3,4.6c1.6-3.6,3.2-7.1,5-10.8
			c-1.6-0.2-2.7-0.3-3.7-0.4c-1.7-7,0.7-13,3.5-18.9c0.3-0.7,1.4-1.5,2.1-1.5c5.5-0.1,11-0.1,16.6-0.1c0,10.7,0,21.1,0,31.8
			c-2.3,0-4.5,0-7.2,0C257.7-48.6,257.7-52.2,257.7-55.7z M249.8-62.2c2.8,0,5.3,0,7.8,0c0-2.9,0-5.6,0-8.2
			C251.6-71.9,249.8-70.5,249.8-62.2z"/>
		<path d="M142.8-76.7c0,10.6,0,20.8,0,31.2c-2.3,0-4.5,0-7.1,0c0-2.8,0-5.7,0-8.9c-2.8,0-5.3,0-8.1,0c0,2.9,0,5.8,0,8.9
			c-2.6,0-4.8,0-7.5,0c0.7-9.8-2.1-19.8,3.6-28.9c0.6-1,1.8-2.2,2.7-2.2C131.7-76.8,137-76.7,142.8-76.7z M135.3-70.4
			c-7.2-2.2-8.5,2.9-7.6,9.8c2.4,0,4.9,0,7.6,0C135.3-64,135.3-67.3,135.3-70.4z"/>
		<path d="M186.5-63.2c3.3,0,6.4,0,9.9,0c0,5.9,0,11.8,0,18c-7.1,0-14.3,0-21.6,0c0-10.4,0-20.6,0-31.1c7.1,0,14.3,0,21.7,0
			c0,1.8,0,3.5,0,5.5c-4.7,0-9.4,0-14.2,0c0,6.7,0,13.1,0,19.8c2.3,0,4.5,0,6.9,0c0-2,0-4,0-6.1c-0.9-0.2-1.7-0.4-2.6-0.6
			C186.5-59.7,186.5-61.4,186.5-63.2z"/>
		<path d="M291.4-63.1c0,6,0,11.9,0,17.9c-7.2,0-14.3,0-21.6,0c0-10.3,0-20.6,0-31.2c7.1,0,14.3,0,21.6,0c0,1.7,0,3.4,0,5.5
			c-4.6,0-9.4,0-14.3,0c0,6.8,0,13.2,0,19.8c2.3,0,4.4,0,6.9,0c0-1.9,0-3.8,0-6c-0.7-0.2-1.6-0.6-2.6-0.9c0-1.7,0-3.3,0-5.1
			C284.6-63.1,287.9-63.1,291.4-63.1z"/>
		<path d="M20.5-50.8c0-2.4,0-4.3,0-6.7c-5.1,0-10,0-15.1,0c0-6.5,0-12.6,0-18.9c7.4,0,14.8,0,22.4,0c0,1.8,0,3.5,0,5.5
			c-5,0-9.9,0-15,0c0,2.5,0,4.8,0,7.4c4.9,0,9.9,0,15,0c0,6.2,0,12.1,0,18.2c-7.4,0-14.8,0-22.4,0c0-1.8,0-3.5,0-5.5
			C10.4-50.8,15.3-50.8,20.5-50.8z"/>
		<path d="M1-56.1c-4.8,0-9.6,0-14.9,0c0,4.2,0,8.2,0,12.4c-2.6,0-4.9,0-7.3,0c0-11.4,0-22.6,0-34.4c5.7,0,11.4-0.1,17.1,0.1
			c0.6,0,1.3,0.9,1.6,1.6C0.2-70.1,2.9-63.8,1-56.1z M-13.9-71.9c0,1.5,0,3,0,4.6c0,1.7,0,3.4,0,5.3c1.6,0,2.8,0,4,0
			c1.3,0,2.6,0,3.9,0C-6.1-72.2-7.4-73.4-13.9-71.9z"/>
		<path d="M71.6-76c0,3.9,0,7.3,0,11c5.1,0,9.9,0,14.8,0c2.1,7.2-0.9,13.1-3.6,19.1c-0.2,0.5-1.2,0.8-1.8,0.8C75.4-45,70-45,64.3-45
			c0-10.4,0-20.5,0-31C66.6-76,68.9-76,71.6-76z M71.6-51.1c7,0.4,8.8-1.5,7.6-7.7c-2.5,0-5,0-7.6,0C71.6-56.1,71.6-53.7,71.6-51.1z
			"/>
		<path d="M60.5-76.7c-3.8,10.4-7.2,20.5-11.2,30.3c-0.5,1.3-4.2,1.4-6.9,2.1c0.2-3.5-1.1-6,1.7-8.3c0.8-0.7,0.7-3.8-0.1-5.2
			c-3.6-6.2-7.5-12.3-11.4-18.5c7.2-1.4,7.5-1.3,10.7,4.6c1.6,3,3.3,6,5.3,9.6c1.2-4,2.4-7.3,3.1-10.7c0.7-3.2,2.1-4.7,5.4-4.1
			C57.9-76.5,58.9-76.7,60.5-76.7z"/>
		<path d="M208.8-45.8c-1.9,0-3.5,0-5.3,0c0-1.8,0-3.6,0-5.6c1.7,0,3.4,0,5.3,0C208.8-49.5,208.8-47.7,208.8-45.8z"/>
	</g>
</g>
<g>
	<g>
		<g>
			<path class="st0" d="M84.5,111.8c-0.9,10.4-1.3,20.7-1.2,30.8c3-1.8,5.9-3.5,8.9-5.1c0-3.6,0.1-7.2,0.3-10.8
				c6.2-3.2,12.4-6.2,18.6-8.8c0.1-0.3,0.2-0.5,0.3-0.8c0.1-0.3,0.2-0.5,0.3-0.8c0.1-0.2,0.1-0.4,0.2-0.6s0.1-0.4,0.2-0.6
				c0.1-0.3,0.1-0.7,0.2-1c0-0.2,0-0.3,0.1-0.5c0-0.1,0-0.2,0-0.3c0-0.2,0.1-0.4,0.1-0.6c0-0.1,0-0.2,0-0.3c0-0.2,0-0.5,0-0.7
				s0-0.3,0-0.5c0-0.3,0-0.6-0.1-0.9s-0.1-0.7-0.2-1c-0.1-0.4-0.2-0.7-0.3-1.1c-0.1-0.3-0.2-0.7-0.4-1.1c-0.1-0.2-0.2-0.4-0.3-0.6
				c-0.2-0.4-0.4-0.8-0.6-1.2c-0.3-0.6-0.7-1.2-1-1.8c-0.3-0.5-0.6-1-0.9-1.4c-0.1-0.1-0.2-0.2-0.3-0.3c-0.1-0.1-0.3-0.1-0.4-0.2
				c-0.1,0-0.3-0.1-0.4-0.1c-0.2,0-0.4,0-0.6,0C99.6,104.5,92.1,107.9,84.5,111.8z"/>
			<path class="st0" d="M116.7,114.4c6.4-2.5,12.8-4.7,19.1-6.6c-0.4,1.9-0.7,3.7-1,5.6c-6.3,2-12.6,4.2-18.8,6.8
				c-0.2,1.6-0.3,3.1-0.5,4.7c9.2-3.8,18.4-7,27.5-9.6c0.9-5,1.9-10,3.1-15c-6.4,1.6-12.8,3.4-19.3,5.6c0.4-2.1,0.8-4.2,1.2-6.3
				c6.5-2.1,13-3.9,19.4-5.4c0.5-1.5,0.9-3.1,1.4-4.6c-9.9,2.2-19.8,5.1-29.7,8.6C118.3,103.6,117.4,109,116.7,114.4z"/>
			<path class="st0" d="M191.6,83.6c-7,7-13.5,14.3-19.4,21.8c-0.4,0.5-0.8,0.9-1.1,1.4c-0.4,0.4-0.7,0.8-1.1,1.2
				c-0.3,0.3-0.6,0.6-0.9,0.9c0,0-0.8,0.6-1,0.7c-0.2,0-3.7,1.2-3.7,1.2c-1.5,0.4-3,0.9-4.5,1.4c0.1-0.3,0.2-0.5,0.4-0.8
				c0.2-0.7,0.5-1.4,0.7-2.2c0.3-0.5,0.5-1,0.8-1.5c0,0,0.5-0.8,0.7-1.1c0.2-0.3,0.6-0.7,0.8-0.8c0.2-0.2,0.6-0.6,0.6-0.6
				s0.6-0.4,0.9-0.7c0.3-0.3,0.5-1.1,0.5-1.1c0.1-0.3,0.2-0.6,0.2-0.9s0-0.6,0-0.8c-0.2-0.3-0.3-0.6-0.5-0.9
				c-3.3-4.1-6.6-8.2-10.1-12.3c1.1-0.3,2.1-0.7,3.2-1c0.8-0.2,1.6-0.4,2.4-0.6c0.7-0.1,1.4-0.2,2.1-0.3c0.7,0,1.4,0,2,0.1
				c0.5,0.3,1,0.6,1.5,0.8c1.9,3.1,3.9,6.2,5.8,9.2c2.4-3.3,4.9-6.5,7.6-9.7c0.5-0.5,0.9-1,1.4-1.5c0,0,0.5-0.5,0.8-0.7
				c0.4-0.1,1.6-0.6,1.6-0.6c0.6-0.1,1.1-0.2,1.7-0.3c0.7-0.1,1.3-0.1,2-0.1C188.5,83.6,190.1,83.6,191.6,83.6z"/>
			<path class="st0" d="M196.3,83.9c-3.6,7.9-6.6,15.9-9.3,23.9c6.8-0.5,13.6-0.7,20.3-0.6c0.5-0.1,0.9-0.2,1.4-0.3
				c0.3-0.3,0.6-0.5,0.9-0.8c0.2-0.2,0.4-0.4,0.7-0.7c1.1-1,2.2-1.9,3.3-2.9c0.9-0.8,1.7-1.7,2.6-2.5c0.5-0.7,1-1.3,1.6-2
				c0.4-0.6,0.8-1.2,1.2-1.8c0.2-1,0.5-2,0.7-3c0-0.2,0-0.4,0-0.6c-5.9-0.4-11.9-0.5-18-0.5c1.2-2.8,2.5-5.6,3.9-8.4
				C202.5,83.8,199.4,83.8,196.3,83.9z"/>
			<path class="st0" d="M230.4,84.9c-4.3,7.4-8.2,14.9-11.6,22.5c8.5,0.6,16.9,1.6,25,3.2c4-7.1,8.5-14.2,13.4-21.1
				C248.5,87.5,239.6,86,230.4,84.9z"/>
			<path class="st0" d="M289.1,99.4c-5.5,6.2-10.7,12.5-15.4,19c-2.4-0.8-4.7-1.6-7.1-2.3c1.3-1.9,2.7-3.8,4-5.7
				c-2.8-0.9-5.7-1.7-8.5-2.4c-1.3,1.9-2.6,3.9-3.8,5.8c-2.6-0.7-5.3-1.3-8-1.9c0,0,1.2-1.6,1.3-1.7s1.5-2.4,1.5-2.4
				c0.4-0.7,0.9-1.4,1.4-2.2c0.4-0.7,0.7-1.4,1.1-2.2c0.4-0.6,0.8-1.3,1.3-1.9s1.1-1.2,1.6-1.7c0.5-0.6,1.1-1.2,1.6-1.7
				c0.8-0.6,1.7-1.2,2.5-1.8c0.8-0.5,1.7-0.9,2.5-1.4c1-0.4,1.9-0.8,2.9-1.1c0.9-0.2,1.7-0.3,2.5-0.5c0.3,0,0.6,0.1,0.9,0.1
				C277.4,94.9,283.4,97.1,289.1,99.4z"/>
			<path class="st0" d="M298.9,103.4c6.2,2.8,12.1,5.8,17.9,9c-6.2,5.5-12,11.3-17.4,17.3c-2.1-1.1-4.3-2.2-6.5-3.2
				c1.8-2.1,3.6-4.2,5.5-6.2c-0.2-0.2-0.4-0.3-0.6-0.5c-0.3-0.2-0.6-0.4-0.9-0.6c-0.3-0.1-0.5-0.2-0.8-0.4c-0.3-0.1-0.5-0.2-0.8-0.2
				c-0.2,0-0.5-0.1-0.7-0.1s-0.5,0-0.7,0c-0.3,0.1-0.5,0.1-0.8,0.2c-0.2,0.1-0.4,0.1-0.5,0.2c-0.4,0.2-0.9,0.5-1.3,0.7
				c-1.2,0.5-2.3,0.9-3.5,1.4c-0.5,0.2-1,0.4-1.4,0.6c-0.3,0.1-0.6,0.3-0.9,0.4s-0.7,0.2-1,0.3c-0.3,0-0.5,0.1-0.8,0.1
				s-0.6-0.1-0.9-0.1c-0.4-0.1-0.7-0.2-1.1-0.3c0,0-0.9-0.4-1-0.5l-3.3-1.7c3.2-1.6,6.5-3.1,9.9-4.6c-1.1-0.6-2.2-1.2-3.4-1.8
				c0.1-0.3,0.2-0.5,0.3-0.7c0.1-0.2,0.2-0.5,0.3-0.7c0.1-0.3,0.3-0.5,0.5-0.8c0.3-0.3,0.5-0.6,0.8-0.9s0.6-0.7,0.9-1
				c0.4-0.3,0.8-0.6,1.2-0.9c0.3-0.2,0.7-0.5,1-0.7c0.4-0.2,0.7-0.4,1-0.7c0.3-0.2,0.7-0.4,1-0.6c0.8-0.4,1.5-0.7,2.3-1.1
				c0.7-0.3,1.4-0.5,2.1-0.8c0.6-0.2,1.3-0.5,1.9-0.7C297.8,103.8,298.4,103.6,298.9,103.4z"/>
			<path class="st0" d="M321.3,115c-6.2,5.4-12,11-17.4,16.8c6.4,3.5,12.5,7.3,18.2,11.3c3.4-3,6.9-6,10.5-8.8c-2.7-2-5.5-4-8.4-5.9
				c-1.1,0.9-2.1,1.8-3.2,2.7c0.6,0.6,1.3,1.2,1.9,1.8c-1.2,1-2.4,2-3.5,3.1c-1.9-1.3-3.9-2.5-5.9-3.7c3.6-3.5,7.4-6.9,11.4-10.2
				c4.3,2.7,8.4,5.6,12.4,8.6c1.2-0.9,2.3-1.7,3.5-2.5C334.6,123.5,328.1,119.1,321.3,115z"/>
			<path class="st0" d="M331.3,144.3c-1.1,0.9-2.2,1.8-3.2,2.7c1.4,1.1,2.7,2.1,4.1,3.2c1.1-0.9,2.1-1.8,3.2-2.6
				C334,146.5,332.7,145.4,331.3,144.3z"/>
			<path class="st0" d="M356.2,141c-6.9,4.1-13.5,8.6-19.7,13.4c5.4,4.7,10.4,9.6,15.1,14.7c6.5-4.1,13.4-7.9,20.7-11.3
				C367.3,151.9,361.9,146.3,356.2,141z"/>
			<path class="st0" d="M388.7,180c-7.5,2.5-14.8,5.4-21.6,8.7c-1.2-1.8-2.5-3.6-3.7-5.3c2.3-1.2,4.6-2.3,7-3.4
				c-0.2-0.4-0.4-0.7-0.5-1.1c-0.3-0.4-0.7-0.8-1-1.3c-0.4-0.3-0.7-0.5-1.1-0.7c-0.5-0.1-1-0.1-1.5-0.2c-1.6,0.1-3.1,0.1-4.6,0.3
				c-0.9,0-1.8-0.1-2.7-0.1c-0.4-0.2-0.7-0.4-1.1-0.7c-0.5-0.4-1.1-0.7-1.6-1.1c-0.6-0.8-1.3-1.5-1.9-2.3c-0.3-0.4-0.6-0.7-0.9-1.1
				c3.4-0.2,6.9-0.3,10.5-0.3c-0.6-1-1.3-2-1.9-3c0.2-0.2,0.4-0.4,0.6-0.6c0.3-0.2,0.6-0.5,1-0.7c0.6-0.4,1.2-0.7,1.8-1
				c0.3-0.1,0.7-0.2,1-0.3s0.6-0.2,1-0.3s0.9-0.2,1.3-0.3c0.6-0.1,1.3-0.2,1.9-0.2s1.2-0.1,1.8-0.1c0.5,0,1.1,0,1.6,0
				c0.6,0,1.2,0,1.8,0c0.4,0.1,0.9,0.1,1.3,0.2c0.3,0,0.6,0.1,0.9,0.1c0.2,0.1,0.5,0.2,0.7,0.4s0.5,0.5,0.7,0.7
				C382.5,170.7,385.7,175.3,388.7,180z"/>
			<path class="st0" d="M391.2,184.1c-7.5,2.3-14.8,5.1-21.8,8.3c3.5,5.5,6.6,11.1,9.4,16.8c4.1-1.4,8.3-2.6,12.6-3.7
				c-1.3-2.9-2.8-5.7-4.3-8.5c-1.2,0.4-2.4,0.7-3.6,1.1c0.2,0.8,0.3,1.6,0.5,2.4c-1.4,0.4-2.9,0.9-4.3,1.4c-0.9-1.8-1.9-3.6-2.9-5.4
				c4.6-1.7,9.3-3.3,14-4.7c2.3,4.1,4.3,8.2,6.2,12.4c1.4-0.3,2.7-0.6,4.1-0.9C398.2,196.7,394.9,190.3,391.2,184.1z"/>
		</g>
		<g>
			<path class="st1" d="M92.7,121.6c3.3-1.7,6.7-3.3,10-4.8c0.1-0.6,0.1-1.1,0.2-1.7c0-0.4,0-0.8,0-1.3s0-1,0-1.5
				c0-0.4-0.1-0.9-0.1-1.3c-0.1-0.3-0.2-0.5-0.3-0.8c-0.1-0.2-0.3-0.3-0.4-0.5c-0.2-0.1-0.3-0.2-0.5-0.3c-0.2,0-0.4-0.1-0.7-0.1
				c-0.4,0.1-0.7,0.1-1.1,0.1c-0.5,0.2-0.9,0.3-1.4,0.5c-0.6,0.3-1.2,0.6-1.7,0.9c-0.6,0.3-1.1,0.7-1.7,1s-1.1,0.7-1.6,1
				C93.1,115.7,92.9,118.6,92.7,121.6z"/>
			<path class="st1" d="M199.8,96.8c3-0.1,6.1-0.1,9.1,0c0,0.3-0.1,0.7-0.1,1.1c-0.2,0.6-0.4,1.2-0.6,1.8c-0.3,0.3-0.6,0.6-0.9,0.9
				c-0.4,0.3-0.9,0.6-1.4,0.9c-0.5,0.2-1,0.4-1.6,0.6c0,0-1.5,0.2-1.7,0.3c-0.2,0-2.4,0.2-2.4,0.2c-0.9,0-1.8,0-2.8,0.1
				C198.2,100.8,199,98.8,199.8,96.8z"/>
			<path class="st1" d="M236.9,90.2c3,0.4,6.1,0.9,9.1,1.5c-2.9,4.5-5.6,9-8.1,13.6c-2.9-0.4-5.8-0.8-8.7-1.2
				C231.6,99.4,234.2,94.8,236.9,90.2z"/>
			<path class="st1" d="M273.3,106.3c-2.7-0.9-5.3-1.7-8.1-2.4c0.2-0.4,0.5-0.8,0.7-1.2c0,0,0.7-1.2,0.8-1.3s1-1.2,1.2-1.3
				s1.7-1.2,1.7-1.2c0.5-0.2,1-0.3,1.4-0.5c0.5,0,1-0.1,1.5-0.1c0.5,0.1,1.1,0.2,1.7,0.2c0.6,0.2,1.3,0.4,2,0.6
				c0.5,0.2,0.9,0.5,1.4,0.7c0.2,0.1,0.4,0.2,0.5,0.3C276.4,102.2,274.8,104.2,273.3,106.3z"/>
			<path class="st1" d="M380.3,175.4c-2,0.8-3.9,1.6-5.8,2.4c-1.4-2-2.9-4-4.4-6c0.2-0.1,0.4-0.2,0.6-0.3c0.4-0.2,0.8-0.4,1.2-0.6
				c0.4-0.1,0.8-0.2,1.2-0.3c0.6-0.1,1.1-0.2,1.7-0.3c0.4,0,0.7,0,1.1,0.1c0.4,0.2,0.8,0.3,1.1,0.5c0.3,0.2,0.6,0.4,0.8,0.6
				c0.3,0.3,0.6,0.6,0.9,0.9c0.3,0.5,0.6,0.9,0.9,1.4C379.8,174.4,380,174.9,380.3,175.4z"/>
			<path class="st1" d="M357.7,148.7c1.8,1.8,3.6,3.6,5.4,5.5c-4.5,2.4-8.8,5-13,7.7c-1.7-1.7-3.4-3.4-5.2-5.1
				C349,154,353.3,151.3,357.7,148.7z"/>
			<path class="st1" d="M306.2,111.9c-1.6,1.5-3.1,3.1-4.6,4.7c-2.5-1.2-5-2.4-7.6-3.5c0.1-0.2,0.3-0.3,0.5-0.5
				c0.3-0.3,0.6-0.7,0.9-1c0.4-0.3,0.7-0.5,1.1-0.8c0.5-0.3,1-0.7,1.5-1c0.4-0.1,0.7-0.3,1.1-0.4c0.5,0,0.9,0,1.4,0
				c0.4,0.1,0.8,0.1,1.2,0.2c0.5,0.2,0.9,0.3,1.4,0.5c0.5,0.3,1.1,0.6,1.6,0.9C305.2,111.2,305.7,111.6,306.2,111.9z"/>
		</g>
	</g>
</g>
<g id="boar">
	
		<radialGradient id="outline_black_2_" cx="277.85" cy="247.3994" r="316.2875" gradientTransform="matrix(1 0 0 1 0 216)" gradientUnits="userSpaceOnUse">
		<stop  offset="2.510000e-02" style="stop-color:#000000"/>
		<stop  offset="1" style="stop-color:#000000"/>
	</radialGradient>
	<path id="outline_black_1_" class="st2" d="M289.7,280.5l-6.2-11.3l11.8-14.6L280,238.5l-9.5-7.4l11.1-4.2l7-5.5l6.7-9.2l1.7-10.6
		v-5.9l-10.3-2.9h-10.3h-5.9l-6.2,2.7l-5.7,9.2l-1.4,2.9l-8.7-10.2v-4.6l4.9-7.4l9-7.6l5.5-3.6l11.3-6.5l12.1-4l-14.1-10.1
		l-19.8-7.7l-14.3-4.7l10-10.6l-27-1.6H208l-20.1,5.4l-12.6,4.6l-10.7,5.7v-13.9l-7.4,6.5l-5.5,6.1l-3.2,5.5l-2.9,7.5v4.1l-11.3-5.2
		l-7.7-1.5l2,1.9l3.7,3.7l3.2,3.1l1.9,4.2l-0.4,5.6l-1.1,5.9l-6.5,8.7L106,214.2l-6.8,10.7l-1.6-39.1l-4.5,11l-7,17.7l-5.8,21.3
		l-5.6,26.1l-0.9,18.7v16.9v15.2l4.9,16.8l5.5,14.9l12.4,19.4l12.8,12.5l20.7,12.7l16.8,7.1l13.4,4.7l4.7,0.6l6.6-7.5l8.1-0.1
		l10.3-2.2l14.2-5.1c0,0,8.3-8.3,8.7-8.6s9.3-6.1,9.3-6.1l11.8,9l6.7,4.7l9.8,1.4l10.7-0.3l11-2.1c0,0,10.8-4.9,11.2-5.1
		s11-6.9,11-6.9l4.4-5.5l11.5,3.4l12.1,0.9l13-1.6l7.6-5.4l23-17.2l10.1-13.6l4-15.7v-15.2l-1.4-8.2l-8,10.6l-7.8,8.3l-7.7,6.6
		l-7.7-0.1l-3.6-10.7l-9.1-8.8l-15.8,0.5l-12.5-4.5l-12.2-6.1l-5.1-6.5L289.7,280.5z"/>
	
		<radialGradient id="SVGID_1_" cx="280.754" cy="247.3994" r="316.2875" gradientTransform="matrix(1 0 0 1 0 216)" gradientUnits="userSpaceOnUse">
		<stop  offset="2.510000e-02" style="stop-color:#FFFFFF"/>
		<stop  offset="1" style="stop-color:#000000"/>
	</radialGradient>
	<polygon class="st3" points="236.8,633.6 248.1,628.7 250.3,616.8 248.4,611.9 238.7,599.6 232,580.2 230.1,554.8 230.1,538.7 
		221.3,546.9 213.3,566 211.1,579.8 211.1,600 215.2,616.8 223.8,628.3 230.7,633.6 	"/>
	
		<radialGradient id="SVGID_2_" cx="274.3636" cy="169.2039" r="265.5685" gradientTransform="matrix(1 0 0 1 0 216)" gradientUnits="userSpaceOnUse">
		<stop  offset="0" style="stop-color:#000000"/>
		<stop  offset="2.510000e-02" style="stop-color:#FFFFFF"/>
	</radialGradient>
	<path class="st4" d="M131.1,277.1l-6.7,17l-4.5,21.7l3.4,18.3l16.4,11.6h19.1c0,0,16.1,1.1,17.6,0s12.3,0.5,12.3,0.5l9,4.4
		c0,0,11.6,5.2,11.6,6.4s2.6,6.4,4.1,7.5s-13.1,17.2-13.1,17.2l-17.6,6l-23.2-4.5L141.6,369c0,0,9,12,9.7,13.1
		c0.8,1.1,15.4,9.3,15.4,9.3l-31.1-9.7l-28.8-23.2l-17.9-32.9L83.3,286l6-34.7l10.1,11.6l16.4-30.3l14.9-13.4h7.5l5.2,3.4l2.6,10.1
		l0.4,9.3c0,0,12.3-15.3,12.3-16.4s0.4-20.5,0.4-20.5l-0.8-10.5l-3.4,12.3l-4.9,7.5l-6-1.9l-3.7-14.2l3.4-20.2l3-9L161,176
		l13.4,14.9l8.6,14.9l-0.4-17.2l-2.2-16.4l21.3,11.6l21.7,20.5l15.3,16.4l1.9,3.7l5.6-15.3l12,9.7l8.6-10.5l10.1-6
		c0,0,12.7-0.4,12.7,0.8s0,11.2,0,11.2l-10.8,8.2l-15.3,3l14.9,18.3l-2.3,11.6l-9.7-9.3l-3,12.3l3,12.3l13.5,2.6l6.4,11.6l3.4,6
		l-12.7,7.5l9.7-2.2l6.4-1.5c0,0,6,3,7.5,4.1s9.7,6.4,9.7,6.4l-16.1,7.1l-14.6,16.4l-1.9,19.8l-0.8,11.2l-20.9-9.3l2.2-12.3
		l-2.2-9.3l7.5,7.1l-3.7-9l-6.7-5.2l-1.5-2.2l6.3,0.4l8.2,2.6l1.5,3.7l-7.8-12l-10.1-1.1l-8.9-7.4l-6.9-17.3l-2.3-8.4l0.1-15.2
		l-4.5,3l-5.2,9.9l-3.3,8.2L217,300v4.5L189.4,280l-6-6.5l-3-2.6l-5.2-0.4l-23.5,12.3l17.2-2.8h4.9l-3,3.2l-5.2,1.1l-4.5,4.1
		l-3.4,6.4l-1.9,25.4l4.9-5.2l6-3l11.9-0.4l11.9,2.2l10.1,6l8.6,5.2l7.5,10.5l5,6.7l9.1,8.2l9.3,3.7l13.4,2.2l-7.5,2.2l-16.4,0.4
		l-13.1-8.6l-12.3-12.7L193.5,325l-10.8-5.2l9.3,9.7l4.7,5.2l-9.1-3.7l-9.7-2.6l4.5,3.4l10.1,4.9l4.3,4.1l-13.3-3.4l-18.3-0.8
		l-11.9-0.8l-11.6-4.5l-10.1-9l-3.4-11.2l-0.8-16.4L131.1,277.1z"/>
	<polygon class="st5" points="266.3,246.2 263.4,258.5 266.3,270.9 279.8,273.5 283.5,261.5 280.9,248.4 278.3,244 277.5,251.1 
		274.9,258.7 	"/>
	
		<radialGradient id="SVGID_3_" cx="212.9601" cy="34.0929" r="27.1204" gradientTransform="matrix(1 0 0 1 0 216)" gradientUnits="userSpaceOnUse">
		<stop  offset="2.510000e-02" style="stop-color:#FFFFFF"/>
		<stop  offset="1" style="stop-color:#000000"/>
	</radialGradient>
	<polygon class="st6" points="180.4,253.7 184.5,244 193.1,232.4 212.2,243 229,255.6 238.7,258.9 242.1,255.6 240.2,242.5 
		246.2,257 246.2,265.3 237.9,267.9 218.9,258.9 213.3,255.6 193.9,243.6 	"/>
	
		<radialGradient id="SVGID_4_" cx="221.806" cy="12.6392" r="12.3748" gradientTransform="matrix(1 0 0 1 0 216)" gradientUnits="userSpaceOnUse">
		<stop  offset="2.510000e-02" style="stop-color:#FFFFFF"/>
		<stop  offset="1" style="stop-color:#000000"/>
	</radialGradient>
	<polygon class="st7" points="209.2,222.7 222.3,227.5 234.2,236.9 226.9,224.5 221.7,218.9 	"/>
	<path class="st1" d="M172.9,297.6l3.7-3.5l3.7-5.6v6v12.3l-7.5-2.2L172.9,297.6L172.9,297.6z"/>
	<polygon class="st1" points="184.5,288.4 190.1,291 193.9,294.8 190.9,299.3 184.5,306.7 	"/>
	<polygon class="st1" points="191.3,310.1 196.7,312.3 199.8,312.3 198,306.7 199.8,301.1 199.4,297.8 193.9,299.1 191.4,303.8 
		189.3,307.8 191.6,309.8 	"/>
	<path class="st1" d="M205.9,300.6l-2.9-1.3l-1.8,2.6l-0.9,4.5v2.7l1.6,4.7l0.9,1.2l3.4-4.7l1.5-3.1c0,0,2.2-2.3,2.2-2.4
		S205.9,300.6,205.9,300.6z"/>
	<polygon class="st1" points="296.2,322.8 285.8,337 283.5,359 296.2,366.9 321.3,368.7 338.8,364.3 346.3,355.3 350.8,340.7 
		348.9,322.8 335.1,306.7 323.5,305.1 307,310.1 	"/>
	<polygon points="304.4,333.6 304.4,340.7 302.9,350.4 306.3,355.7 312.3,350.4 315.3,341.8 319.4,330.3 319.4,320.6 313.4,320.6 
		307.4,326.1 	"/>
	<polygon points="324.2,344.8 322.7,350.4 324.2,355.7 328.7,357.5 334.7,351.2 336.6,340 339.2,331 339.2,326.1 331,326.1 
		325.4,336.9 	"/>
	<polygon class="st5" points="210,253.5 196.7,255.6 189.3,258.7 205.1,258.7 205.1,265.3 208.9,270.1 213.3,273.5 221.7,273.5 
		224.6,269.4 226.9,263.8 216.6,257.6 	"/>
	<path class="st1" d="M213.1,308.1c0,0-0.3,11.1-0.2,11.3s-2.8,1.3-2.8,1.3l-4.1-2.2l-1.3-2.4l0.8-1.6l7.4-7.6L213.1,308.1z"/>
	
		<radialGradient id="SVGID_5_" cx="237.5071" cy="26.7587" r="34.2758" gradientTransform="matrix(1 0 0 1 0 216)" gradientUnits="userSpaceOnUse">
		<stop  offset="2.510000e-02" style="stop-color:#FFFFFF"/>
		<stop  offset="1" style="stop-color:#000000"/>
	</radialGradient>
	<polygon class="st8" points="248.8,344.6 240.2,336.2 232.3,324.9 226.9,308.2 226.9,292.4 226.9,276 232.5,260.4 221.7,276 
		218.5,289.3 218.5,304.7 221.7,324.9 228.6,344.6 235.7,348.2 243.2,348.2 	"/>
</g>
<ellipse class="st9" cx="216.5" cy="264.1" rx="5.2" ry="3.8"/>
<g>
	<g>
		
			<image style="overflow:visible;enable-background:new    ;" width="296" height="89" xlink:href="2BCF47A0.png"  transform="matrix(1 0 0 1 173 216)">
		</image>
	</g>
</g>
<g class="st10">
	<g>
		
			<image style="overflow:visible;enable-background:new    ;" width="320" height="322" xlink:href="2BCF47A3.png"  transform="matrix(1 0 0 1 48 100)">
		</image>
	</g>
</g>
</svg>
