<?xml version="1.0" encoding="utf-8"?>
<!-- Generator: Adobe Illustrator 23.0.3, SVG Export Plug-In . SVG Version: 6.00 Build 0)  -->
<svg version="1.1" id="Layer_1" xmlns="http://www.w3.org/2000/svg" xmlns:xlink="http://www.w3.org/1999/xlink" x="0px" y="0px"
	 viewBox="0 0 432 432" style="enable-background:new 0 0 432 432;" xml:space="preserve">
<style type="text/css">
	.st0{stroke:#000000;stroke-width:2;stroke-miterlimit:10;}
	.st1{fill:#FFFFFF;stroke:#000000;stroke-miterlimit:10;}
	.st2{fill:url(#outline_black_2_);stroke:#000000;stroke-miterlimit:10;}
	.st3{fill:url(#SVGID_1_);stroke:#000000;stroke-miterlimit:10;}
	.st4{stroke:#000000;stroke-miterlimit:10;}
	.st5{stroke:url(#SVGID_2_);stroke-miterlimit:10;}
	.st6{stroke:url(#SVGID_3_);stroke-miterlimit:10;}
	.st7{fill:url(#SVGID_4_);}
	.st8{fill:#CC3333;stroke:#FFFFFF;stroke-miterlimit:10;}
	.st9{opacity:0.58;}
</style>
<g>
	<g>
		<g>
			<g>
				<path class="st0" d="M87.8,74.8c-0.9,10.4-1.3,20.7-1.2,30.8c3-1.8,5.9-3.5,8.9-5.1c0-3.6,0.1-7.2,0.3-10.8
					c6.2-3.2,12.4-6.2,18.6-8.8c0.1-0.3,0.2-0.5,0.3-0.8c0.1-0.3,0.2-0.5,0.3-0.8c0.1-0.2,0.1-0.4,0.2-0.6s0.1-0.4,0.2-0.6
					c0.1-0.3,0.1-0.7,0.2-1c0-0.2,0-0.3,0.1-0.5c0-0.1,0-0.2,0-0.3c0-0.2,0.1-0.4,0.1-0.6c0-0.1,0-0.2,0-0.3c0-0.2,0-0.5,0-0.7
					s0-0.3,0-0.5c0-0.3,0-0.6-0.1-0.9s-0.1-0.7-0.2-1c-0.1-0.4-0.2-0.7-0.3-1.1c-0.1-0.3-0.2-0.7-0.4-1.1c-0.1-0.2-0.2-0.4-0.3-0.6
					c-0.2-0.4-0.4-0.8-0.6-1.2c-0.3-0.6-0.7-1.2-1-1.8c-0.3-0.5-0.6-1-0.9-1.4c-0.1-0.1-0.2-0.2-0.3-0.3c-0.1-0.1-0.3-0.1-0.4-0.2
					c-0.1,0-0.3-0.1-0.4-0.1c-0.2,0-0.4,0-0.6,0C102.9,67.5,95.4,70.9,87.8,74.8z"/>
				<path class="st0" d="M120,77.4c6.4-2.5,12.8-4.7,19.1-6.6c-0.4,1.9-0.7,3.7-1,5.6c-6.3,2-12.6,4.2-18.8,6.8
					c-0.2,1.6-0.3,3.1-0.5,4.7c9.2-3.8,18.4-7,27.5-9.6c0.9-5,1.9-10,3.1-15c-6.4,1.6-12.8,3.4-19.3,5.6c0.4-2.1,0.8-4.2,1.2-6.3
					c6.5-2.1,13-3.9,19.4-5.4c0.5-1.5,0.9-3.1,1.4-4.6c-9.9,2.2-19.8,5.1-29.7,8.6C121.6,66.6,120.7,72,120,77.4z"/>
				<path class="st0" d="M194.9,46.6c-7,7-13.5,14.3-19.4,21.8c-0.4,0.5-0.8,0.9-1.1,1.4c-0.4,0.4-0.7,0.8-1.1,1.2
					c-0.3,0.3-0.6,0.6-0.9,0.9c0,0-0.8,0.6-1,0.7c-0.2,0-3.7,1.2-3.7,1.2c-1.5,0.4-3,0.9-4.5,1.4c0.1-0.3,0.2-0.5,0.4-0.8
					c0.2-0.7,0.5-1.4,0.7-2.2c0.3-0.5,0.5-1,0.8-1.5c0,0,0.5-0.8,0.7-1.1c0.2-0.3,0.6-0.7,0.8-0.8c0.2-0.2,0.6-0.6,0.6-0.6
					s0.6-0.4,0.9-0.7c0.3-0.3,0.5-1.1,0.5-1.1c0.1-0.3,0.2-0.6,0.2-0.9s0-0.6,0-0.8c-0.2-0.3-0.3-0.6-0.5-0.9
					c-3.3-4.1-6.6-8.2-10.1-12.3c1.1-0.3,2.1-0.7,3.2-1c0.8-0.2,1.6-0.4,2.4-0.6c0.7-0.1,1.4-0.2,2.1-0.3c0.7,0,1.4,0,2,0.1
					c0.5,0.3,1,0.6,1.5,0.8c1.9,3.1,3.9,6.2,5.8,9.2c2.4-3.3,4.9-6.5,7.6-9.7c0.5-0.5,0.9-1,1.4-1.5c0,0,0.5-0.5,0.8-0.7
					c0.4-0.1,1.6-0.6,1.6-0.6c0.6-0.1,1.1-0.2,1.7-0.3c0.7-0.1,1.3-0.1,2-0.1C191.8,46.6,193.4,46.6,194.9,46.6z"/>
				<path class="st0" d="M199.6,46.9c-3.6,7.9-6.6,15.9-9.3,23.9c6.8-0.5,13.6-0.7,20.3-0.6c0.5-0.1,0.9-0.2,1.4-0.3
					c0.3-0.3,0.6-0.5,0.9-0.8c0.2-0.2,0.4-0.4,0.7-0.7c1.1-1,2.2-1.9,3.3-2.9c0.9-0.8,1.7-1.7,2.6-2.5c0.5-0.7,1-1.3,1.6-2
					c0.4-0.6,0.8-1.2,1.2-1.8c0.2-1,0.5-2,0.7-3c0-0.2,0-0.4,0-0.6c-5.9-0.4-11.9-0.5-18-0.5c1.2-2.8,2.5-5.6,3.9-8.4
					C205.8,46.8,202.7,46.8,199.6,46.9z"/>
				<path class="st0" d="M233.7,47.9c-4.3,7.4-8.2,14.9-11.6,22.5c8.5,0.6,16.9,1.6,25,3.2c4-7.1,8.5-14.2,13.4-21.1
					C251.8,50.5,242.9,49,233.7,47.9z"/>
				<path class="st0" d="M292.4,62.4c-5.5,6.2-10.7,12.5-15.4,19c-2.4-0.8-4.7-1.6-7.1-2.3c1.3-1.9,2.7-3.8,4-5.7
					c-2.8-0.9-5.7-1.7-8.5-2.4c-1.3,1.9-2.6,3.9-3.8,5.8c-2.6-0.7-5.3-1.3-8-1.9c0,0,1.2-1.6,1.3-1.7c0.1-0.1,1.5-2.4,1.5-2.4
					c0.4-0.7,0.9-1.4,1.4-2.2c0.4-0.7,0.7-1.4,1.1-2.2c0.4-0.6,0.8-1.3,1.3-1.9c0.5-0.6,1.1-1.2,1.6-1.7c0.5-0.6,1.1-1.2,1.6-1.7
					c0.8-0.6,1.7-1.2,2.5-1.8c0.8-0.5,1.7-0.9,2.5-1.4c1-0.4,1.9-0.8,2.9-1.1c0.9-0.2,1.7-0.3,2.5-0.5c0.3,0,0.6,0.1,0.9,0.1
					C280.7,57.9,286.7,60.1,292.4,62.4z"/>
				<path class="st0" d="M302.2,66.4c6.2,2.8,12.1,5.8,17.9,9c-6.2,5.5-12,11.3-17.4,17.3c-2.1-1.1-4.3-2.2-6.5-3.2
					c1.8-2.1,3.6-4.2,5.5-6.2c-0.2-0.2-0.4-0.3-0.6-0.5c-0.3-0.2-0.6-0.4-0.9-0.6c-0.3-0.1-0.5-0.2-0.8-0.4
					c-0.3-0.1-0.5-0.2-0.8-0.2c-0.2,0-0.5-0.1-0.7-0.1s-0.5,0-0.7,0c-0.3,0.1-0.5,0.1-0.8,0.2c-0.2,0.1-0.4,0.1-0.5,0.2
					c-0.4,0.2-0.9,0.5-1.3,0.7c-1.2,0.5-2.3,0.9-3.5,1.4c-0.5,0.2-1,0.4-1.4,0.6c-0.3,0.1-0.6,0.3-0.9,0.4c-0.3,0.1-0.7,0.2-1,0.3
					c-0.3,0-0.5,0.1-0.8,0.1s-0.6-0.1-0.9-0.1c-0.4-0.1-0.7-0.2-1.1-0.3c0,0-0.9-0.4-1-0.5l-3.3-1.7c3.2-1.6,6.5-3.1,9.9-4.6
					c-1.1-0.6-2.2-1.2-3.4-1.8c0.1-0.3,0.2-0.5,0.3-0.7c0.1-0.2,0.2-0.5,0.3-0.7c0.1-0.3,0.3-0.5,0.5-0.8c0.3-0.3,0.5-0.6,0.8-0.9
					s0.6-0.7,0.9-1c0.4-0.3,0.8-0.6,1.2-0.9c0.3-0.2,0.7-0.5,1-0.7c0.4-0.2,0.7-0.4,1-0.7c0.3-0.2,0.7-0.4,1-0.6
					c0.8-0.4,1.5-0.7,2.3-1.1c0.7-0.3,1.4-0.5,2.1-0.8c0.6-0.2,1.3-0.5,1.9-0.7C301.1,66.8,301.7,66.6,302.2,66.4z"/>
				<path class="st0" d="M324.6,78c-6.2,5.4-12,11-17.4,16.8c6.4,3.5,12.5,7.3,18.2,11.3c3.4-3,6.9-6,10.5-8.8c-2.7-2-5.5-4-8.4-5.9
					c-1.1,0.9-2.1,1.8-3.2,2.7c0.6,0.6,1.3,1.2,1.9,1.8c-1.2,1-2.4,2-3.5,3.1c-1.9-1.3-3.9-2.5-5.9-3.7c3.6-3.5,7.4-6.9,11.4-10.2
					c4.3,2.7,8.4,5.6,12.4,8.6c1.2-0.9,2.3-1.7,3.5-2.5C337.9,86.5,331.4,82.1,324.6,78z"/>
				<path class="st0" d="M334.6,107.3c-1.1,0.9-2.2,1.8-3.2,2.7c1.4,1.1,2.7,2.1,4.1,3.2c1.1-0.9,2.1-1.8,3.2-2.6
					C337.3,109.5,336,108.4,334.6,107.3z"/>
				<path class="st0" d="M359.5,104c-6.9,4.1-13.5,8.6-19.7,13.4c5.4,4.7,10.4,9.6,15.1,14.7c6.5-4.1,13.4-7.9,20.7-11.3
					C370.6,114.9,365.2,109.3,359.5,104z"/>
				<path class="st0" d="M392,143c-7.5,2.5-14.8,5.4-21.6,8.7c-1.2-1.8-2.5-3.6-3.7-5.3c2.3-1.2,4.6-2.3,7-3.4
					c-0.2-0.4-0.4-0.7-0.5-1.1c-0.3-0.4-0.7-0.8-1-1.3c-0.4-0.3-0.7-0.5-1.1-0.7c-0.5-0.1-1-0.1-1.5-0.2c-1.6,0.1-3.1,0.1-4.6,0.3
					c-0.9,0-1.8-0.1-2.7-0.1c-0.4-0.2-0.7-0.4-1.1-0.7c-0.5-0.4-1.1-0.7-1.6-1.1c-0.6-0.8-1.3-1.5-1.9-2.3c-0.3-0.4-0.6-0.7-0.9-1.1
					c3.4-0.2,6.9-0.3,10.5-0.3c-0.6-1-1.3-2-1.9-3c0.2-0.2,0.4-0.4,0.6-0.6c0.3-0.2,0.6-0.5,1-0.7c0.6-0.4,1.2-0.7,1.8-1
					c0.3-0.1,0.7-0.2,1-0.3s0.6-0.2,1-0.3s0.9-0.2,1.3-0.3c0.6-0.1,1.3-0.2,1.9-0.2s1.2-0.1,1.8-0.1c0.5,0,1.1,0,1.6,0
					c0.6,0,1.2,0,1.8,0c0.4,0.1,0.9,0.1,1.3,0.2c0.3,0,0.6,0.1,0.9,0.1c0.2,0.1,0.5,0.2,0.7,0.4s0.5,0.5,0.7,0.7
					C385.8,133.7,389,138.3,392,143z"/>
				<path class="st0" d="M394.5,147.1c-7.5,2.3-14.8,5.1-21.8,8.3c3.5,5.5,6.6,11.1,9.4,16.8c4.1-1.4,8.3-2.6,12.6-3.7
					c-1.3-2.9-2.8-5.7-4.3-8.5c-1.2,0.4-2.4,0.7-3.6,1.1c0.2,0.8,0.3,1.6,0.5,2.4c-1.4,0.4-2.9,0.9-4.3,1.4
					c-0.9-1.8-1.9-3.6-2.9-5.4c4.6-1.7,9.3-3.3,14-4.7c2.3,4.1,4.3,8.2,6.2,12.4c1.4-0.3,2.7-0.6,4.1-0.9
					C401.5,159.7,398.2,153.3,394.5,147.1z"/>
			</g>
			<g>
				<path class="st1" d="M96,84.6c3.3-1.7,6.7-3.3,10-4.8c0.1-0.6,0.1-1.1,0.2-1.7c0-0.4,0-0.8,0-1.3s0-1,0-1.5
					c0-0.4-0.1-0.9-0.1-1.3c-0.1-0.3-0.2-0.5-0.3-0.8c-0.1-0.2-0.3-0.3-0.4-0.5c-0.2-0.1-0.3-0.2-0.5-0.3c-0.2,0-0.4-0.1-0.7-0.1
					c-0.4,0.1-0.7,0.1-1.1,0.1c-0.5,0.2-0.9,0.3-1.4,0.5c-0.6,0.3-1.2,0.6-1.7,0.9c-0.6,0.3-1.1,0.7-1.7,1s-1.1,0.7-1.6,1
					C96.4,78.7,96.2,81.6,96,84.6z"/>
				<path class="st1" d="M203.1,59.8c3-0.1,6.1-0.1,9.1,0c0,0.3-0.1,0.7-0.1,1.1c-0.2,0.6-0.4,1.2-0.6,1.8c-0.3,0.3-0.6,0.6-0.9,0.9
					c-0.4,0.3-0.9,0.6-1.4,0.9c-0.5,0.2-1,0.4-1.6,0.6c0,0-1.5,0.2-1.7,0.3c-0.2,0-2.4,0.2-2.4,0.2c-0.9,0-1.8,0-2.8,0.1
					C201.5,63.8,202.3,61.8,203.1,59.8z"/>
				<path class="st1" d="M240.2,53.2c3,0.4,6.1,0.9,9.1,1.5c-2.9,4.5-5.6,9-8.1,13.6c-2.9-0.4-5.8-0.8-8.7-1.2
					C234.9,62.4,237.5,57.8,240.2,53.2z"/>
				<path class="st1" d="M276.6,69.3c-2.7-0.9-5.3-1.7-8.1-2.4c0.2-0.4,0.5-0.8,0.7-1.2c0,0,0.7-1.2,0.8-1.3s1-1.2,1.2-1.3
					s1.7-1.2,1.7-1.2c0.5-0.2,1-0.3,1.4-0.5c0.5,0,1-0.1,1.5-0.1c0.5,0.1,1.1,0.2,1.7,0.2c0.6,0.2,1.3,0.4,2,0.6
					c0.5,0.2,0.9,0.5,1.4,0.7c0.2,0.1,0.4,0.2,0.5,0.3C279.7,65.2,278.1,67.2,276.6,69.3z"/>
				<path class="st1" d="M383.6,138.4c-2,0.8-3.9,1.6-5.8,2.4c-1.4-2-2.9-4-4.4-6c0.2-0.1,0.4-0.2,0.6-0.3c0.4-0.2,0.8-0.4,1.2-0.6
					c0.4-0.1,0.8-0.2,1.2-0.3c0.6-0.1,1.1-0.2,1.7-0.3c0.4,0,0.7,0,1.1,0.1c0.4,0.2,0.8,0.3,1.1,0.5c0.3,0.2,0.6,0.4,0.8,0.6
					c0.3,0.3,0.6,0.6,0.9,0.9c0.3,0.5,0.6,0.9,0.9,1.4C383.1,137.4,383.3,137.9,383.6,138.4z"/>
				<path class="st1" d="M361,111.7c1.8,1.8,3.6,3.6,5.4,5.5c-4.5,2.4-8.8,5-13,7.7c-1.7-1.7-3.4-3.4-5.2-5.1
					C352.3,117,356.6,114.3,361,111.7z"/>
				<path class="st1" d="M309.5,74.9c-1.6,1.5-3.1,3.1-4.6,4.7c-2.5-1.2-5-2.4-7.6-3.5c0.1-0.2,0.3-0.3,0.5-0.5
					c0.3-0.3,0.6-0.7,0.9-1c0.4-0.3,0.7-0.5,1.1-0.8c0.5-0.3,1-0.7,1.5-1c0.4-0.1,0.7-0.3,1.1-0.4c0.5,0,0.9,0,1.4,0
					c0.4,0.1,0.8,0.1,1.2,0.2c0.5,0.2,0.9,0.3,1.4,0.5c0.5,0.3,1.1,0.6,1.6,0.9C308.5,74.2,309,74.6,309.5,74.9z"/>
			</g>
		</g>
	</g>
	<g id="boar">
		
			<radialGradient id="outline_black_2_" cx="281.15" cy="221.6006" r="316.2875" gradientTransform="matrix(1 0 0 -1 0 648)" gradientUnits="userSpaceOnUse">
			<stop  offset="2.510000e-02" style="stop-color:#000000"/>
			<stop  offset="1" style="stop-color:#000000"/>
		</radialGradient>
		<path id="outline_black_1_" class="st2" d="M293,243.5l-6.2-11.3l11.8-14.6l-15.3-16.1l-9.5-7.4l11.1-4.2l7-5.5l6.7-9.2l1.7-10.6
			v-5.9l-10.3-2.9h-10.3h-5.9l-6.2,2.7l-5.7,9.2l-1.4,2.9l-8.7-10.2v-4.6l4.9-7.4l9-7.6l5.5-3.6l11.3-6.5l12.1-4l-14.1-10.1
			l-19.8-7.7l-14.3-4.7l10-10.6l-27-1.6h-18.1l-20.1,5.4l-12.6,4.6l-10.7,5.7V93.8l-7.4,6.5l-5.5,6.1l-3.2,5.5l-2.9,7.5v4.1
			l-11.3-5.2l-7.7-1.5l2,1.9l3.7,3.7l3.2,3.1l1.9,4.2l-0.4,5.6l-1.1,5.9l-6.5,8.7l-23.4,27.3l-6.8,10.7l-1.6-39.1l-4.5,11l-7,17.7
			l-5.8,21.3L78,224.9l-0.9,18.7v16.9v15.2l4.9,16.8l5.5,14.9l12.4,19.4l12.8,12.5l20.7,12.7l16.8,7.1l13.4,4.7l4.7,0.6l6.6-7.5
			l8.1-0.1l10.3-2.2l14.2-5.1c0,0,8.3-8.3,8.7-8.6s9.3-6.1,9.3-6.1l11.8,9l6.7,4.7l9.8,1.4l10.7-0.3l11-2.1c0,0,10.8-4.9,11.2-5.1
			s11-6.9,11-6.9l4.4-5.5l11.5,3.4l12.1,0.9l13-1.6l7.6-5.4l23-17.2l10.1-13.6l4-15.7v-15.2l-1.4-8.2l-8,10.6l-7.8,8.3l-7.7,6.6
			l-7.7-0.1l-3.6-10.7l-9.1-8.8l-15.8,0.5l-12.5-4.5l-12.2-6.1l-5.1-6.5L293,243.5z"/>
		
			<radialGradient id="SVGID_1_" cx="277.6636" cy="299.7961" r="265.5685" gradientTransform="matrix(1 0 0 -1 0 648)" gradientUnits="userSpaceOnUse">
			<stop  offset="0" style="stop-color:#000000"/>
			<stop  offset="2.510000e-02" style="stop-color:#FFFFFF"/>
		</radialGradient>
		<path class="st3" d="M134.4,240.1l-6.7,17l-4.5,21.7l3.4,18.3l16.4,11.6h19.1c0,0,16.1,1.1,17.6,0s12.3,0.5,12.3,0.5l9,4.4
			c0,0,11.6,5.2,11.6,6.4s2.6,6.4,4.1,7.5s-13.1,17.2-13.1,17.2l-17.6,6l-23.2-4.5L144.9,332c0,0,9,12,9.7,13.1
			c0.8,1.1,15.4,9.3,15.4,9.3l-31.1-9.7l-28.8-23.2l-17.9-32.9L86.6,249l6-34.7l10.1,11.6l16.4-30.3l14.9-13.4h7.5l5.2,3.4l2.6,10.1
			l0.4,9.3c0,0,12.3-15.3,12.3-16.4s0.4-20.5,0.4-20.5l-0.8-10.5l-3.4,12.3l-4.9,7.5l-6-1.9l-3.7-14.2l3.4-20.2l3-9l14.3,6.9
			l13.4,14.9l8.6,14.9l-0.4-17.2l-2.2-16.4l21.3,11.6l21.7,20.5l15.3,16.4l1.9,3.7l5.6-15.3l12,9.7l8.6-10.5l10.1-6
			c0,0,12.7-0.4,12.7,0.8s0,11.2,0,11.2l-10.8,8.2l-15.3,3l14.9,18.3l-2.3,11.6l-9.7-9.3l-3,12.3l3,12.3l13.5,2.6l6.4,11.6l3.4,6
			l-12.7,7.5l9.7-2.2l6.4-1.5c0,0,6,3,7.5,4.1s9.7,6.4,9.7,6.4l-16.1,7.1l-14.6,16.4l-1.9,19.8l-0.8,11.2l-20.9-9.3l2.2-12.3
			l-2.2-9.3l7.5,7.1l-3.7-9l-6.7-5.2l-1.5-2.2l6.3,0.4l8.2,2.6l1.5,3.7l-7.8-12l-10.1-1.1l-8.9-7.4l-6.9-17.3l-2.3-8.4l0.1-15.2
			l-4.5,3l-5.2,9.9l-3.3,8.2l-1.7,14.1v4.5L192.7,243l-6-6.5l-3-2.6l-5.2-0.4L155,245.8l17.2-2.8h4.9l-3,3.2l-5.2,1.1l-4.5,4.1
			l-3.4,6.4l-1.9,25.4l4.9-5.2l6-3l11.9-0.4l11.9,2.2l10.1,6l8.6,5.2l7.5,10.5l5,6.7l9.1,8.2l9.3,3.7l13.4,2.2l-7.5,2.2l-16.4,0.4
			l-13.1-8.6l-12.3-12.7L196.8,288l-10.8-5.2l9.3,9.7l4.7,5.2l-9.1-3.7l-9.7-2.6l4.5,3.4l10.1,4.9l4.3,4.1l-13.3-3.4l-18.3-0.8
			l-11.9-0.8l-11.6-4.5l-10.1-9l-3.4-11.2l-0.8-16.4L134.4,240.1z"/>
		<polygon class="st4" points="269.6,209.2 266.7,221.5 269.6,233.9 283.1,236.5 286.8,224.5 284.2,211.4 281.6,207 280.8,214.1 
			278.2,221.7 		"/>
		
			<radialGradient id="SVGID_2_" cx="216.26" cy="434.9071" r="27.1204" gradientTransform="matrix(1 0 0 -1 0 648)" gradientUnits="userSpaceOnUse">
			<stop  offset="2.510000e-02" style="stop-color:#FFFFFF"/>
			<stop  offset="1" style="stop-color:#000000"/>
		</radialGradient>
		<polygon class="st5" points="183.7,216.7 187.8,207 196.4,195.4 215.5,206 232.3,218.6 242,221.9 245.4,218.6 243.5,205.5 
			249.5,220 249.5,228.3 241.2,230.9 222.2,221.9 216.6,218.6 197.2,206.6 		"/>
		
			<radialGradient id="SVGID_3_" cx="225.106" cy="456.3608" r="12.3748" gradientTransform="matrix(1 0 0 -1 0 648)" gradientUnits="userSpaceOnUse">
			<stop  offset="2.510000e-02" style="stop-color:#FFFFFF"/>
			<stop  offset="1" style="stop-color:#000000"/>
		</radialGradient>
		<polygon class="st6" points="212.5,185.7 225.6,190.5 237.5,199.9 230.2,187.5 225,181.9 		"/>
		<path class="st1" d="M176.2,260.6l3.7-3.5l3.7-5.6v6v12.3l-7.5-2.2L176.2,260.6L176.2,260.6z"/>
		<polygon class="st1" points="187.8,251.4 193.4,254 197.2,257.8 194.2,262.3 187.8,269.7 		"/>
		<polygon class="st1" points="194.6,273.1 200,275.3 203.1,275.3 201.3,269.7 203.1,264.1 202.7,260.8 197.2,262.1 194.7,266.8 
			192.6,270.8 194.9,272.8 		"/>
		<path class="st1" d="M209.2,263.6l-2.9-1.3l-1.8,2.6l-0.9,4.5v2.7l1.6,4.7l0.9,1.2l3.4-4.7l1.5-3.1c0,0,2.2-2.3,2.2-2.4
			S209.2,263.6,209.2,263.6z"/>
		<polygon class="st1" points="299.5,285.8 289.1,300 286.8,322 299.5,329.9 324.6,331.7 342.1,327.3 349.6,318.3 354.1,303.7 
			352.2,285.8 338.4,269.7 326.8,268.1 310.3,273.1 		"/>
		<polygon points="307.7,296.6 307.7,303.7 306.2,313.4 309.6,318.7 315.6,313.4 318.6,304.8 322.7,293.3 322.7,283.6 316.7,283.6 
			310.7,289.1 		"/>
		<polygon points="327.5,307.8 326,313.4 327.5,318.7 332,320.5 338,314.2 339.9,303 342.5,294 342.5,289.1 334.3,289.1 
			328.7,299.9 		"/>
		<polygon class="st4" points="213.3,216.5 200,218.6 192.6,221.7 208.4,221.7 208.4,228.3 212.2,233.1 216.6,236.5 225,236.5 
			227.9,232.4 230.2,226.8 219.9,220.6 		"/>
		<path class="st1" d="M216.4,271.1c0,0-0.3,11.1-0.2,11.3s-2.8,1.3-2.8,1.3l-4.1-2.2l-1.3-2.4l0.8-1.6l7.4-7.6L216.4,271.1z"/>
		
			<radialGradient id="SVGID_4_" cx="240.8071" cy="442.2413" r="34.2758" gradientTransform="matrix(1 0 0 -1 0 648)" gradientUnits="userSpaceOnUse">
			<stop  offset="2.510000e-02" style="stop-color:#FFFFFF"/>
			<stop  offset="1" style="stop-color:#000000"/>
		</radialGradient>
		<polygon class="st7" points="252.1,307.6 243.5,299.2 235.6,287.9 230.2,271.2 230.2,255.4 230.2,239 235.8,223.4 225,239 
			221.8,252.3 221.8,267.7 225,287.9 231.9,307.6 239,311.2 246.5,311.2 		"/>
	</g>
	<ellipse class="st8" cx="219.8" cy="227.1" rx="5.2" ry="3.8"/>
	<g>
		
			<image style="overflow:visible;enable-background:new    ;" width="296" height="89" xlink:href="../../Adobe/Illustrator/aiproject1logo/DB689B41.png"  transform="matrix(1 0 0 1 176.3 179)">
		</image>
	</g>
	<g class="st9">
		
			<image style="overflow:visible;enable-background:new    ;" width="320" height="322" xlink:href="../../Adobe/Illustrator/aiproject1logo/DB689B47.png"  transform="matrix(1 0 0 1 51.3 63)">
		</image>
	</g>
</g>
</svg>
