<?xml version="1.0" encoding="utf-8"?>
<!-- Generator: Adobe Illustrator 23.0.3, SVG Export Plug-In . SVG Version: 6.00 Build 0)  -->
<svg version="1.1" id="Layer_1" xmlns="http://www.w3.org/2000/svg" xmlns:xlink="http://www.w3.org/1999/xlink" x="0px" y="0px"
	 viewBox="0 0 432 216" style="enable-background:new 0 0 432 216;" xml:space="preserve">
<style type="text/css">
	.st0{fill:url(#outline_black_3_);stroke:#000000;stroke-miterlimit:10;}
	.st1{display:none;fill:url(#SVGID_1_);stroke:#000000;stroke-miterlimit:10;}
	.st2{fill:url(#SVGID_2_);stroke:#000000;stroke-miterlimit:10;}
	.st3{stroke:#000000;stroke-miterlimit:10;}
	.st4{stroke:url(#SVGID_3_);stroke-miterlimit:10;}
	.st5{stroke:url(#SVGID_4_);stroke-miterlimit:10;}
	.st6{fill:#FFFFFF;stroke:#000000;stroke-miterlimit:10;}
	.st7{fill:url(#SVGID_5_);}
	.st8{fill:#CC3333;stroke:#FFFFFF;stroke-miterlimit:10;}
	.st9{opacity:0.58;}
	.st10{fill:url(#outline_black_4_);stroke:#000000;stroke-miterlimit:10;}
	.st11{display:none;fill:url(#SVGID_6_);stroke:#000000;stroke-miterlimit:10;}
	.st12{fill:url(#SVGID_7_);stroke:#000000;stroke-miterlimit:10;}
	.st13{stroke:url(#SVGID_8_);stroke-miterlimit:10;}
	.st14{stroke:url(#SVGID_9_);stroke-miterlimit:10;}
	.st15{fill:url(#SVGID_10_);}
</style>
<g id="boar">
	
		<radialGradient id="outline_black_3_" cx="350.615" cy="4.0912" r="170.2637" gradientTransform="matrix(1 0 0 -1 0 216)" gradientUnits="userSpaceOnUse">
		<stop  offset="2.510000e-02" style="stop-color:#000000"/>
		<stop  offset="1" style="stop-color:#000000"/>
	</radialGradient>
	<path id="outline_black_1_" class="st0" d="M357,113.5l-3.3-6.1l6.4-7.9l-8.2-8.7l-5.1-4l6-2.3l3.8-3l3.6-5l0.9-5.7v-3.2l-5.5-1.6
		h-5.5h-3.2l-3.3,1.5l-3.1,5l-0.8,1.6l-4.7-5.5v-2.5l2.6-4l4.8-4.1l3-1.9l6.1-3.5l6.5-2.2l-7.6-5.4L339.6,41l-7.7-2.5l5.4-5.7
		l-14.5-0.9H313l-10.8,2.9l-6.8,2.5l-5.8,3.1v-7.5l-4,3.5l-3,3.3l-1.7,3l-1.6,4v2.2l-6.1-2.8l-4.1-0.8l1.1,1l2,2l1.7,1.7l1,2.3
		l-0.2,3l-0.6,3.2l-3.5,4.7l-12.6,14.7l-3.7,5.8l-0.9-21l-2.4,5.9l-3.8,9.5l-3.1,11.5l-3,14.1l-0.5,10.1v9.1v8.2l2.6,9l3,8l6.7,10.4
		l6.9,6.7l11.1,6.8l9,3.8l7.2,2.5l2.5,0.3l3.6-4l4.4-0.1l5.5-1.2l7.6-2.7c0,0,4.5-4.5,4.7-4.6c0.2-0.2,5-3.3,5-3.3l6.4,4.8l3.6,2.5
		l5.3,0.8l5.8-0.2l5.9-1.1c0,0,5.8-2.6,6-2.7c0.2-0.1,5.9-3.7,5.9-3.7l2.4-3l6.2,1.8l6.5,0.5l7-0.9l4.1-2.9l12.4-9.3l5.4-7.3
		l2.2-8.5v-8.2l-0.8-4.4l-4.3,5.7l-4.2,4.5l-4.1,3.6l-4.1-0.1l-1.9-5.8l-4.9-4.7l-8.5,0.3L366,122l-6.6-3.3l-2.7-3.5L357,113.5z"/>
	
		<radialGradient id="SVGID_1_" cx="352.1783" cy="4.0912" r="170.2637" gradientTransform="matrix(1 0 0 -1 0 216)" gradientUnits="userSpaceOnUse">
		<stop  offset="2.510000e-02" style="stop-color:#FFFFFF"/>
		<stop  offset="1" style="stop-color:#000000"/>
	</radialGradient>
	<polygon class="st1" points="328.5,303.5 334.6,300.9 335.8,294.5 334.8,291.8 329.5,285.2 325.9,274.8 324.9,261.1 324.9,252.4 
		320.2,256.9 315.9,267.1 314.7,274.6 314.7,285.4 316.9,294.5 321.5,300.7 325.2,303.5 	"/>
	
		<radialGradient id="SVGID_2_" cx="348.7382" cy="46.1853" r="142.9607" gradientTransform="matrix(1 0 0 -1 0 216)" gradientUnits="userSpaceOnUse">
		<stop  offset="0" style="stop-color:#000000"/>
		<stop  offset="2.510000e-02" style="stop-color:#FFFFFF"/>
	</radialGradient>
	<path class="st2" d="M271.6,111.6l-3.6,9.2l-2.4,11.7l1.8,9.9l8.8,6.2h10.3c0,0,8.7,0.6,9.5,0c0.8-0.6,6.6,0.3,6.6,0.3l4.8,2.4
		c0,0,6.2,2.8,6.2,3.4c0,0.6,1.4,3.4,2.2,4c0.8,0.6-7.1,9.3-7.1,9.3l-9.5,3.2l-12.5-2.4l-9.6-7.6c0,0,4.8,6.5,5.2,7.1
		c0.4,0.6,8.3,5,8.3,5l-16.7-5.2l-15.5-12.5l-9.6-17.7l-3-21.3l3.2-18.7l5.4,6.2l8.8-16.3l8-7.2h4l2.8,1.8l1.4,5.4l0.2,5
		c0,0,6.6-8.2,6.6-8.8s0.2-11,0.2-11l-0.4-5.7l-1.8,6.6l-2.6,4l-3.2-1l-2-7.6l1.8-10.9l1.6-4.8l7.7,3.7l7.2,8l4.6,8l-0.2-9.3
		l-1.2-8.8l11.5,6.2l11.7,11l8.2,8.8l1,2l3-8.2l6.5,5.2l4.6-5.7l5.4-3.2c0,0,6.8-0.2,6.8,0.4c0,0.6,0,6,0,6l-5.8,4.4l-8.2,1.6l8,9.9
		l-1.2,6.2l-5.2-5l-1.6,6.6l1.6,6.6l7.3,1.4l3.4,6.2l1.8,3.2l-6.8,4l5.2-1.2l3.4-0.8c0,0,3.2,1.6,4,2.2c0.8,0.6,5.2,3.4,5.2,3.4
		l-8.7,3.8l-7.9,8.8l-1,10.7l-0.4,6l-11.3-5l1.2-6.6l-1.2-5l4,3.8l-2-4.8l-3.6-2.8l-0.8-1.2l3.4,0.2l4.4,1.4l0.8,2l-4.2-6.5
		l-5.4-0.6l-4.8-4l-3.7-9.3l-1.2-4.5l0.1-8.2l-2.4,1.6l-2.8,5.3l-1.8,4.4l-0.9,7.6v2.4L303,113.2l-3.2-3.5l-1.6-1.4l-2.8-0.2
		l-12.7,6.6l9.3-1.5h2.6l-1.6,1.7l-2.8,0.6l-2.4,2.2l-1.8,3.4l-1,13.7l2.6-2.8l3.2-1.6l6.4-0.2l6.4,1.2l5.4,3.2l4.6,2.8l4,5.7
		l2.7,3.6l4.9,4.4l5,2l7.2,1.2l-4,1.2l-8.8,0.2l-7.1-4.6l-6.6-6.8l-5.8-6.8l-5.8-2.8l5,5.2l2.5,2.8l-4.9-2l-5.2-1.4l2.4,1.8l5.4,2.6
		l2.3,2.2l-7.2-1.8l-9.9-0.4l-6.4-0.4l-6.2-2.4l-5.4-4.8l-1.8-6l-0.4-8.8L271.6,111.6z"/>
	<polygon class="st3" points="344.4,95 342.8,101.6 344.4,108.3 351.7,109.7 353.7,103.2 352.3,96.2 350.9,93.8 350.4,97.6 
		349,101.7 	"/>
	
		<radialGradient id="SVGID_3_" cx="315.5266" cy="118.9446" r="14.9324" gradientTransform="matrix(1 0 0 -1 0 216)" gradientUnits="userSpaceOnUse">
		<stop  offset="2.510000e-02" style="stop-color:#FFFFFF"/>
		<stop  offset="1" style="stop-color:#000000"/>
	</radialGradient>
	<polygon class="st4" points="298.2,99 300.4,93.8 305,87.6 315.3,93.3 324.3,100 329.5,101.8 331.4,100 330.3,93 333.6,100.8 
		333.6,105.3 329.1,106.7 318.9,101.8 315.9,100 305.4,93.6 	"/>
	
		<radialGradient id="SVGID_4_" cx="320.4944" cy="130.1259" r="7.3552" gradientTransform="matrix(1 0 0 -1 0 216)" gradientUnits="userSpaceOnUse">
		<stop  offset="2.510000e-02" style="stop-color:#FFFFFF"/>
		<stop  offset="1" style="stop-color:#000000"/>
	</radialGradient>
	<polygon class="st5" points="313.7,82.3 320.7,84.9 327.1,90 323.2,83.3 320.4,80.3 	"/>
	<path class="st6" d="M294.1,122.7l2-1.9l2-3v3.2v6.6l-4-1.2L294.1,122.7L294.1,122.7z"/>
	<polygon class="st6" points="300.4,117.7 303.4,119.1 305.4,121.1 303.8,123.6 300.4,127.6 	"/>
	<polygon class="st6" points="304,129.4 306.9,130.6 308.6,130.6 307.6,127.6 308.6,124.5 308.4,122.8 305.4,123.5 304.1,126 
		302.9,128.1 304.2,129.2 	"/>
	<path class="st6" d="M311.9,124.3l-1.6-0.7l-1,1.4l-0.5,2.4v1.5l0.9,2.5l0.5,0.6l1.8-2.5l0.8-1.7c0,0,1.2-1.2,1.2-1.3
		S311.9,124.3,311.9,124.3z"/>
	<polygon class="st6" points="360.5,136.2 354.9,143.9 353.7,155.7 360.5,160 374,160.9 383.4,158.6 387.5,153.7 389.9,145.9 
		388.9,136.2 381.4,127.6 375.2,126.7 366.3,129.4 	"/>
	<polygon points="364.9,142 364.9,145.9 364.1,151.1 365.9,153.9 369.2,151.1 370.8,146.4 373,140.3 373,135 369.8,135 366.5,138 	
		"/>
	<polygon points="375.6,148.1 374.8,151.1 375.6,153.9 378,154.9 381.2,151.5 382.2,145.5 383.6,140.6 383.6,138 379.2,138 
		376.2,143.8 	"/>
	<polygon class="st3" points="314.1,98.9 306.9,100 302.9,101.7 311.5,101.7 311.5,105.3 313.5,107.9 315.9,109.7 320.4,109.7 
		321.9,107.5 323.2,104.5 317.6,101.1 	"/>
	<path class="st6" d="M315.8,128.3c0,0-0.2,6-0.1,6.1c0.1,0.1-1.5,0.7-1.5,0.7l-2.2-1.2l-0.7-1.3l0.4-0.9l4-4.1L315.8,128.3z"/>
	
		<radialGradient id="SVGID_5_" cx="328.8976" cy="122.8663" r="18.4513" gradientTransform="matrix(1 0 0 -1 0 216)" gradientUnits="userSpaceOnUse">
		<stop  offset="2.510000e-02" style="stop-color:#FFFFFF"/>
		<stop  offset="1" style="stop-color:#000000"/>
	</radialGradient>
	<polygon class="st7" points="335,148 330.3,143.4 326.1,137.4 323.2,128.4 323.2,119.9 323.2,111 326.2,102.6 320.4,111 
		318.7,118.2 318.7,126.5 320.4,137.4 324.1,148 327.9,149.9 332,149.9 	"/>
</g>
<ellipse class="st8" cx="317.6" cy="104.6" rx="2.8" ry="2"/>
<g>
	
		<image style="overflow:visible;enable-background:new    ;" width="296" height="89" xlink:href="../../Adobe/Illustrator/aiproject1logo/DB689B41.png"  transform="matrix(0.5383 0 0 0.5383 294.1722 78.7289)">
	</image>
</g>
<g class="st9">
	
		<image style="overflow:visible;enable-background:new    ;" width="320" height="322" xlink:href="../../Adobe/Illustrator/aiproject1logo/DB689B47.png"  transform="matrix(0.5383 0 0 0.5383 226.8823 16.2839)">
	</image>
</g>
<g id="boar_1_">
	
		<radialGradient id="outline_black_4_" cx="597.2781" cy="2.0684" r="170.2637" gradientTransform="matrix(-1 0 0 -1 679.0335 216)" gradientUnits="userSpaceOnUse">
		<stop  offset="2.510000e-02" style="stop-color:#000000"/>
		<stop  offset="1" style="stop-color:#000000"/>
	</radialGradient>
	<path id="outline_black_2_" class="st10" d="M75.6,117.2l-2.7,3.5l-6.6,3.3l-6.7,2.4l-8.5-0.3l-4.9,4.7l-1.9,5.8l-4.1,0.1l-4.1-3.6
		l-4.2-4.5l-4.3-5.7l-0.8,4.4v8.2l2.2,8.5l5.4,7.3l12.4,9.3l4.1,2.9l7,0.9l6.5-0.5l6.2-1.8l2.4,3c0,0,5.7,3.6,5.9,3.7s6,2.7,6,2.7
		l5.9,1.1l5.8,0.2l5.3-0.8l3.6-2.5l6.4-4.8c0,0,4.8,3.1,5,3.3c0.2,0.2,4.7,4.6,4.7,4.6l7.6,2.7l5.5,1.2l4.4,0.1l3.6,4l2.5-0.3
		l7.2-2.5l9-3.8l11.1-6.8l6.9-6.7l6.7-10.4l3-8l2.6-9v-8.2v-9.1l-0.5-10.1l-3-14.1L185,79.9l-3.8-9.5l-2.4-5.9l-0.9,21l-3.7-5.8
		l-12.6-14.7l-3.5-4.7l-0.6-3.2l-0.2-3l1-2.3l1.7-1.7l2-2l1.1-1l-4.1,0.8l-6.1,2.8v-2.2l-1.6-4l-1.7-3l-3-3.3l-4-3.5v7.5l-5.8-3.1
		l-6.8-2.5l-10.8-2.9h-9.7l-14.5,0.9l5.4,5.7L92.8,43l-10.7,4.1l-7.6,5.4l6.5,2.2l6.1,3.5l3,1.9l4.8,4.1l2.6,4v2.5l-4.7,5.5
		l-0.8-1.6l-3.1-5l-3.3-1.5h-3.2H77l-5.5,1.6V73l0.9,5.7l3.6,5l3.8,3l6,2.3l-5.1,4l-8.2,8.7l6.4,7.9l-3.3,6.1L75.6,117.2z"/>
	
		<radialGradient id="SVGID_6_" cx="598.8413" cy="2.0684" r="170.2637" gradientTransform="matrix(-1 0 0 -1 679.0335 216)" gradientUnits="userSpaceOnUse">
		<stop  offset="2.510000e-02" style="stop-color:#FFFFFF"/>
		<stop  offset="1" style="stop-color:#000000"/>
	</radialGradient>
	<polygon class="st11" points="107.1,305.6 110.9,302.7 115.5,296.5 117.7,287.5 117.7,276.6 116.5,269.2 112.2,258.9 107.5,254.5 
		107.5,263.1 106.4,276.8 102.8,287.3 97.6,293.9 96.6,296.5 97.8,302.9 103.9,305.6 	"/>
	
		<radialGradient id="SVGID_7_" cx="595.4012" cy="44.1625" r="142.9607" gradientTransform="matrix(-1 0 0 -1 679.0335 216)" gradientUnits="userSpaceOnUse">
		<stop  offset="0" style="stop-color:#000000"/>
		<stop  offset="2.510000e-02" style="stop-color:#FFFFFF"/>
	</radialGradient>
	<path class="st12" d="M162.7,123.1l-0.4,8.8l-1.8,6l-5.4,4.8l-6.2,2.4l-6.4,0.4l-9.9,0.4l-7.2,1.8l2.3-2.2l5.4-2.6l2.4-1.8
		l-5.2,1.4l-4.9,2l2.5-2.8l5-5.2l-5.8,2.8l-5.8,6.8l-6.6,6.8l-7.1,4.6l-8.8-0.2l-4-1.2l7.2-1.2l5-2l4.9-4.4l2.7-3.6l4-5.7l4.6-2.8
		l5.4-3.2l6.4-1.2l6.4,0.2l3.2,1.6l2.6,2.8l-1-13.7l-1.8-3.4l-2.4-2.2l-2.8-0.6l-1.6-1.7h2.6l9.3,1.5l-12.7-6.6l-2.8,0.2l-1.6,1.4
		l-3.2,3.5l-14.9,13.2V126l-0.9-7.6l-1.8-4.4l-2.8-5.3l-2.4-1.6l0.1,8.2l-1.2,4.5l-3.7,9.3l-4.8,4l-5.4,0.6l-4.2,6.5l0.8-2l4.4-1.4
		l3.4-0.2l-0.8,1.2l-3.6,2.8l-2,4.8l4-3.8l-1.2,5l1.2,6.6l-11.3,5l-0.4-6l-1-10.7l-7.9-8.8l-8.7-3.8c0,0,4.4-2.9,5.2-3.4
		s4-2.2,4-2.2l3.4,0.8l5.2,1.2l-6.8-4l1.8-3.2l3.4-6.2l7.3-1.4l1.6-6.6L87.9,97l-5.2,5l-1.2-6.2l8-9.9l-8.2-1.6l-5.8-4.4
		c0,0,0-5.4,0-6c0-0.6,6.8-0.4,6.8-0.4l5.4,3.2l4.6,5.7l6.5-5.2l3,8.2l1-2l8.2-8.8l11.7-11l11.5-6.2L133,66l-0.2,9.3l4.6-8l7.2-8
		l7.7-3.7l1.6,4.8l1.8,10.9l-2,7.6l-3.2,1l-2.6-4l-1.8-6.6l-0.4,5.7c0,0,0.2,10.4,0.2,11s6.6,8.8,6.6,8.8l0.2-5l1.4-5.4l2.8-1.8h4
		l8,7.2l8.8,16.3l5.4-6.2l3.2,18.7l-3,21.3l-9.6,17.7L158.3,170l-16.7,5.2c0,0,7.9-4.4,8.3-5c0.4-0.6,5.2-7.1,5.2-7.1l-9.6,7.6
		l-12.5,2.4l-9.5-3.2c0,0-7.9-8.7-7.1-9.3c0.8-0.6,2.2-3.4,2.2-4c0-0.6,6.2-3.4,6.2-3.4l4.8-2.4c0,0,5.8-0.9,6.6-0.3
		c0.8,0.6,9.5,0,9.5,0h10.3l8.8-6.2l1.8-9.9l-2.4-11.7l-3.6-9.2L162.7,123.1z"/>
	<polygon class="st3" points="83.3,103.7 81.9,99.6 81.5,95.8 80.1,98.2 78.7,105.2 80.7,111.7 88,110.3 89.5,103.6 88,97 	"/>
	
		<radialGradient id="SVGID_8_" cx="562.1896" cy="116.9218" r="14.9324" gradientTransform="matrix(-1 0 0 -1 679.0335 216)" gradientUnits="userSpaceOnUse">
		<stop  offset="2.510000e-02" style="stop-color:#FFFFFF"/>
		<stop  offset="1" style="stop-color:#000000"/>
	</radialGradient>
	<polygon class="st13" points="126.9,95.6 116.5,102.1 113.5,103.8 103.3,108.7 98.8,107.3 98.8,102.8 102,95 101,102.1 
		102.8,103.8 108.1,102.1 117.1,95.3 127.4,89.6 132,95.8 134.2,101 	"/>
	
		<radialGradient id="SVGID_9_" cx="567.1573" cy="128.103" r="7.3552" gradientTransform="matrix(-1 0 0 -1 679.0335 216)" gradientUnits="userSpaceOnUse">
		<stop  offset="2.510000e-02" style="stop-color:#FFFFFF"/>
		<stop  offset="1" style="stop-color:#000000"/>
	</radialGradient>
	<polygon class="st14" points="112,82.3 109.2,85.3 105.3,92 111.7,86.9 118.7,84.4 	"/>
	<path class="st6" d="M138.3,124.7l0.1,3.8l-4,1.2V123v-3.2l2,3L138.3,124.7L138.3,124.7z"/>
	<polygon class="st6" points="132,129.6 128.6,125.6 126.9,123.2 129,121.1 132,119.7 	"/>
	<polygon class="st6" points="128.2,131.2 129.4,130.2 128.3,128 126.9,125.5 124,124.8 123.8,126.6 124.7,129.6 123.8,132.6 
		125.4,132.6 128.3,131.4 	"/>
	<path class="st6" d="M118.3,128.6c0,0.1,1.2,1.3,1.2,1.3l0.8,1.7l1.8,2.5l0.5-0.6l0.9-2.5v-1.5L123,127l-1-1.4l-1.6,0.7
		C120.5,126.3,118.3,128.5,118.3,128.6z"/>
	<polygon class="st6" points="66.1,131.4 57.2,128.7 50.9,129.6 43.5,138.2 42.5,147.9 44.9,155.7 48.9,160.6 58.4,163 71.9,162 
		78.7,157.7 77.5,145.9 71.9,138.2 	"/>
	<polygon points="65.8,140 62.6,137.1 59.4,137.1 59.4,142.3 61.6,148.5 63.2,153.1 66.4,156 68.3,153.1 67.5,147.9 67.5,144.1 	"/>
	<polygon points="56.2,145.8 53.1,140 48.7,140 48.7,142.7 50.1,147.5 51.2,153.5 54.4,156.9 56.8,156 57.6,153.1 56.8,150.1 	"/>
	<polygon class="st3" points="114.7,103.1 109.2,106.5 110.4,109.5 112,111.7 116.5,111.7 118.9,109.9 120.9,107.3 120.9,103.7 
		129.4,103.7 125.4,102.1 118.3,100.9 	"/>
	<path class="st6" d="M116.7,129.7l4,4.1l0.4,0.9l-0.7,1.3l-2.2,1.2c0,0-1.6-0.6-1.5-0.7c0.1-0.1-0.1-6.1-0.1-6.1L116.7,129.7z"/>
	
		<radialGradient id="SVGID_10_" cx="575.5607" cy="120.8435" r="18.4513" gradientTransform="matrix(-1 0 0 -1 679.0335 216)" gradientUnits="userSpaceOnUse">
		<stop  offset="2.510000e-02" style="stop-color:#FFFFFF"/>
		<stop  offset="1" style="stop-color:#000000"/>
	</radialGradient>
	<polygon class="st15" points="100.4,151.9 104.4,151.9 108.3,150 112,139.4 113.7,128.5 113.7,120.2 112,113.1 106.2,104.7 
		109.2,113.1 109.2,121.9 109.2,130.4 106.3,139.4 102,145.5 97.4,150 	"/>
</g>
<ellipse class="st8" cx="114.8" cy="106.6" rx="2.8" ry="2"/>
<g>
	
		<image style="overflow:visible;enable-background:new    ;" width="296" height="89" xlink:href="../../Adobe/Illustrator/aiproject1logo/DB689B41.png"  transform="matrix(-0.5383 0 0 0.5383 138.1982 80.7517)">
	</image>
</g>
<g class="st9">
	
		<image style="overflow:visible;enable-background:new    ;" width="320" height="322" xlink:href="../../Adobe/Illustrator/aiproject1logo/DB689B47.png"  transform="matrix(-0.5383 0 0 0.5383 205.4882 18.3067)">
	</image>
</g>
</svg>
