<?xml version="1.0" encoding="utf-8"?>
<!-- Generator: Adobe Illustrator 23.0.3, SVG Export Plug-In . SVG Version: 6.00 Build 0)  -->
<svg version="1.1" id="Layer_1" xmlns="http://www.w3.org/2000/svg" xmlns:xlink="http://www.w3.org/1999/xlink" x="0px" y="0px"
	 viewBox="0 0 360 72" style="enable-background:new 0 0 360 72;" xml:space="preserve">
<g>
	<g>
		<path d="M139.6,50.4c0-10.5,0-20.7,0-31.2c7.4,0,14.8,0,22.4,0c0,10.3,0,20.7,0,31.2C154.6,50.4,147.3,50.4,139.6,50.4z
			 M154.6,44.6c0-6.7,0-13.1,0-19.5c-2.7,0-5.1,0-7.6,0c0,6.6,0,13,0,19.5C149.6,44.6,152,44.6,154.6,44.6z"/>
		<path d="M263.4,19.1c7.5,0,14.8,0,22.3,0c0,10.5,0,20.8,0,31.3c-7.4,0-14.7,0-22.3,0C263.4,40.1,263.4,29.8,263.4,19.1z
			 M278.3,44.7c0-6.8,0-13.2,0-19.6c-2.7,0-5.2,0-7.7,0c0,6.6,0,12.9,0,19.4c0.6,0.1,1.1,0.2,1.5,0.2
			C274.1,44.7,276.1,44.7,278.3,44.7z"/>
		<path d="M200,19c5.9,0,11.8,0,17.9,0c0,10.6,0,21,0,31.7c-2.3,0-4.6,0-7.1,0c0-3.8,0-7.3,0-10.8c-2.9-1-4.6-0.3-5.4,2.6
			c-0.4,1.3-1.1,2.5-1.7,3.7c-2.6,5.5-2.6,5.5-9.2,4.3c1.6-3.5,3.1-6.8,4.9-10.6c-1.4-0.2-2.6-0.4-3.7-0.6
			C194,31.9,196.8,25.4,200,19z M210.7,25.1c-6.6-1.7-8.1,1.7-7.7,8.4c2.5,0,5,0,7.7,0C210.7,30.6,210.7,28,210.7,25.1z"/>
		<path d="M305.8,39.9c-3.2-1-4.7,0.1-5.6,2.8c-0.4,1.2-1,2.2-1.5,3.3c-2.5,5.4-2.5,5.4-9.3,4.6c1.6-3.6,3.2-7.1,5-10.8
			c-1.6-0.2-2.7-0.3-3.7-0.4c-1.7-7,0.7-13,3.5-18.9c0.3-0.7,1.4-1.5,2.1-1.5c5.5-0.1,11-0.1,16.6-0.1c0,10.7,0,21.1,0,31.8
			c-2.3,0-4.5,0-7.2,0C305.8,47,305.8,43.4,305.8,39.9z M297.9,33.4c2.8,0,5.3,0,7.8,0c0-2.9,0-5.6,0-8.2
			C299.7,23.7,297.9,25.1,297.9,33.4z"/>
		<path d="M190.9,18.9c0,10.6,0,20.8,0,31.2c-2.3,0-4.5,0-7.1,0c0-2.8,0-5.7,0-8.9c-2.8,0-5.3,0-8.1,0c0,2.9,0,5.8,0,8.9
			c-2.6,0-4.8,0-7.5,0c0.7-9.8-2.1-19.8,3.6-28.9c0.6-1,1.8-2.2,2.7-2.2C179.8,18.8,185.1,18.9,190.9,18.9z M183.4,25.2
			c-7.2-2.2-8.5,2.9-7.6,9.8c2.4,0,4.9,0,7.6,0C183.4,31.6,183.4,28.3,183.4,25.2z"/>
		<path d="M234.6,32.4c3.3,0,6.4,0,9.9,0c0,5.9,0,11.8,0,18c-7.1,0-14.3,0-21.6,0c0-10.4,0-20.6,0-31.1c7.1,0,14.3,0,21.7,0
			c0,1.8,0,3.5,0,5.5c-4.7,0-9.4,0-14.2,0c0,6.7,0,13.1,0,19.8c2.3,0,4.5,0,6.9,0c0-2,0-4,0-6.1c-0.9-0.2-1.7-0.4-2.6-0.6
			C234.6,35.9,234.6,34.2,234.6,32.4z"/>
		<path d="M339.5,32.5c0,6,0,11.9,0,17.9c-7.2,0-14.3,0-21.6,0c0-10.3,0-20.6,0-31.2c7.1,0,14.3,0,21.6,0c0,1.7,0,3.4,0,5.5
			c-4.6,0-9.4,0-14.3,0c0,6.8,0,13.2,0,19.8c2.3,0,4.4,0,6.9,0c0-1.9,0-3.8,0-6c-0.7-0.2-1.6-0.6-2.6-0.9c0-1.7,0-3.3,0-5.1
			C332.7,32.5,336,32.5,339.5,32.5z"/>
		<path d="M68.6,44.8c0-2.4,0-4.3,0-6.7c-5.1,0-10,0-15.1,0c0-6.5,0-12.6,0-18.9c7.4,0,14.8,0,22.4,0c0,1.8,0,3.5,0,5.5
			c-5,0-9.9,0-15,0c0,2.5,0,4.8,0,7.4c4.9,0,9.9,0,15,0c0,6.2,0,12.1,0,18.2c-7.4,0-14.8,0-22.4,0c0-1.8,0-3.5,0-5.5
			C58.5,44.8,63.4,44.8,68.6,44.8z"/>
		<path d="M49.1,39.5c-4.8,0-9.6,0-14.9,0c0,4.2,0,8.2,0,12.4c-2.6,0-4.9,0-7.3,0c0-11.4,0-22.6,0-34.4c5.7,0,11.4-0.1,17.1,0.1
			c0.6,0,1.3,0.9,1.6,1.6C48.3,25.5,51,31.8,49.1,39.5z M34.2,23.7c0,1.5,0,3,0,4.6c0,1.7,0,3.4,0,5.3c1.6,0,2.8,0,4,0
			c1.3,0,2.6,0,3.9,0C42,23.4,40.7,22.2,34.2,23.7z"/>
		<path d="M119.7,19.6c0,3.9,0,7.3,0,11c5.1,0,9.9,0,14.8,0c2.1,7.2-0.9,13.1-3.6,19.1c-0.2,0.5-1.2,0.8-1.8,0.8
			c-5.6,0.1-11,0.1-16.7,0.1c0-10.4,0-20.5,0-31C114.7,19.6,117,19.6,119.7,19.6z M119.7,44.5c7,0.4,8.8-1.5,7.6-7.7
			c-2.5,0-5,0-7.6,0C119.7,39.5,119.7,41.9,119.7,44.5z"/>
		<path d="M108.6,18.9c-3.8,10.4-7.2,20.5-11.2,30.3c-0.5,1.3-4.2,1.4-6.9,2.1c0.2-3.5-1.1-6,1.7-8.3c0.8-0.7,0.7-3.8-0.1-5.2
			c-3.6-6.2-7.5-12.3-11.4-18.5c7.2-1.4,7.5-1.3,10.7,4.6c1.6,3,3.3,6,5.3,9.6c1.2-4,2.4-7.3,3.1-10.7c0.7-3.2,2.1-4.7,5.4-4.1
			C106,19.1,107,18.9,108.6,18.9z"/>
		<path d="M256.9,49.8c-1.9,0-3.5,0-5.3,0c0-1.8,0-3.6,0-5.6c1.7,0,3.4,0,5.3,0C256.9,46.1,256.9,47.9,256.9,49.8z"/>
	</g>
</g>
</svg>
